<mxfile host="app.diagrams.net" modified="2023-09-20T20:12:32.683Z" agent="Mozilla/5.0 (X11; Ubuntu; Linux x86_64; rv:109.0) Gecko/20100101 Firefox/117.0" etag="ZBb0dqNIAsPUNKW6tIV6" version="21.7.5" type="device">
  <diagram name="Page-1" id="LfT_vYi321T0g5xFwu1h">
    <mxGraphModel dx="2210" dy="795" grid="1" gridSize="10" guides="1" tooltips="1" connect="1" arrows="1" fold="1" page="1" pageScale="1" pageWidth="850" pageHeight="1100" math="0" shadow="0">
      <root>
        <mxCell id="0" />
        <mxCell id="1" parent="0" />
        <mxCell id="YoOEF6NpQiSxoWh0JSfD-22" style="edgeStyle=orthogonalEdgeStyle;rounded=0;orthogonalLoop=1;jettySize=auto;html=1;entryX=0;entryY=0.5;entryDx=0;entryDy=0;" edge="1" parent="1" source="YoOEF6NpQiSxoWh0JSfD-1" target="YoOEF6NpQiSxoWh0JSfD-2">
          <mxGeometry relative="1" as="geometry" />
        </mxCell>
        <mxCell id="YoOEF6NpQiSxoWh0JSfD-24" style="edgeStyle=orthogonalEdgeStyle;rounded=0;orthogonalLoop=1;jettySize=auto;html=1;entryX=0;entryY=0.5;entryDx=0;entryDy=0;" edge="1" parent="1" source="YoOEF6NpQiSxoWh0JSfD-1" target="YoOEF6NpQiSxoWh0JSfD-9">
          <mxGeometry relative="1" as="geometry">
            <Array as="points">
              <mxPoint x="128" y="540" />
              <mxPoint x="128" y="860" />
              <mxPoint x="345" y="860" />
            </Array>
          </mxGeometry>
        </mxCell>
        <mxCell id="YoOEF6NpQiSxoWh0JSfD-26" style="edgeStyle=orthogonalEdgeStyle;rounded=0;orthogonalLoop=1;jettySize=auto;html=1;entryX=-0.024;entryY=0.633;entryDx=0;entryDy=0;entryPerimeter=0;" edge="1" parent="1" source="YoOEF6NpQiSxoWh0JSfD-1" target="YoOEF6NpQiSxoWh0JSfD-3">
          <mxGeometry relative="1" as="geometry" />
        </mxCell>
        <mxCell id="YoOEF6NpQiSxoWh0JSfD-1" value="API GATEWAY" style="rounded=0;whiteSpace=wrap;html=1;" vertex="1" parent="1">
          <mxGeometry x="-240" y="470" width="150" height="140" as="geometry" />
        </mxCell>
        <mxCell id="YoOEF6NpQiSxoWh0JSfD-6" value="" style="edgeStyle=orthogonalEdgeStyle;rounded=0;orthogonalLoop=1;jettySize=auto;html=1;" edge="1" parent="1" source="YoOEF6NpQiSxoWh0JSfD-2" target="YoOEF6NpQiSxoWh0JSfD-5">
          <mxGeometry relative="1" as="geometry" />
        </mxCell>
        <mxCell id="YoOEF6NpQiSxoWh0JSfD-16" style="edgeStyle=orthogonalEdgeStyle;rounded=0;orthogonalLoop=1;jettySize=auto;html=1;entryX=0;entryY=0.5;entryDx=0;entryDy=0;" edge="1" parent="1" source="YoOEF6NpQiSxoWh0JSfD-2" target="YoOEF6NpQiSxoWh0JSfD-3">
          <mxGeometry relative="1" as="geometry">
            <Array as="points">
              <mxPoint x="200" y="480" />
            </Array>
          </mxGeometry>
        </mxCell>
        <mxCell id="YoOEF6NpQiSxoWh0JSfD-17" style="edgeStyle=orthogonalEdgeStyle;rounded=0;orthogonalLoop=1;jettySize=auto;html=1;entryX=0;entryY=0.5;entryDx=0;entryDy=0;" edge="1" parent="1" source="YoOEF6NpQiSxoWh0JSfD-2" target="YoOEF6NpQiSxoWh0JSfD-8">
          <mxGeometry relative="1" as="geometry">
            <Array as="points">
              <mxPoint x="200" y="650" />
            </Array>
          </mxGeometry>
        </mxCell>
        <mxCell id="YoOEF6NpQiSxoWh0JSfD-2" value="Bidding engine service" style="whiteSpace=wrap;html=1;" vertex="1" parent="1">
          <mxGeometry x="110" y="240" width="180" height="130" as="geometry" />
        </mxCell>
        <mxCell id="YoOEF6NpQiSxoWh0JSfD-7" value="" style="edgeStyle=orthogonalEdgeStyle;rounded=0;orthogonalLoop=1;jettySize=auto;html=1;" edge="1" parent="1" source="YoOEF6NpQiSxoWh0JSfD-3" target="YoOEF6NpQiSxoWh0JSfD-4">
          <mxGeometry relative="1" as="geometry" />
        </mxCell>
        <mxCell id="YoOEF6NpQiSxoWh0JSfD-3" value="Inventory Service" style="whiteSpace=wrap;html=1;" vertex="1" parent="1">
          <mxGeometry x="340" y="420" width="170" height="120" as="geometry" />
        </mxCell>
        <mxCell id="YoOEF6NpQiSxoWh0JSfD-4" value="Cassandra" style="shape=cylinder3;whiteSpace=wrap;html=1;boundedLbl=1;backgroundOutline=1;size=15;" vertex="1" parent="1">
          <mxGeometry x="620" y="420" width="110" height="120" as="geometry" />
        </mxCell>
        <mxCell id="YoOEF6NpQiSxoWh0JSfD-5" value="Cassandra" style="shape=cylinder3;whiteSpace=wrap;html=1;boundedLbl=1;backgroundOutline=1;size=15;" vertex="1" parent="1">
          <mxGeometry x="620" y="245" width="110" height="120" as="geometry" />
        </mxCell>
        <mxCell id="YoOEF6NpQiSxoWh0JSfD-11" value="" style="edgeStyle=orthogonalEdgeStyle;rounded=0;orthogonalLoop=1;jettySize=auto;html=1;" edge="1" parent="1" source="YoOEF6NpQiSxoWh0JSfD-8" target="YoOEF6NpQiSxoWh0JSfD-10">
          <mxGeometry relative="1" as="geometry" />
        </mxCell>
        <mxCell id="YoOEF6NpQiSxoWh0JSfD-8" value="User service" style="whiteSpace=wrap;html=1;" vertex="1" parent="1">
          <mxGeometry x="345" y="590" width="170" height="120" as="geometry" />
        </mxCell>
        <mxCell id="YoOEF6NpQiSxoWh0JSfD-14" style="edgeStyle=orthogonalEdgeStyle;rounded=0;orthogonalLoop=1;jettySize=auto;html=1;" edge="1" parent="1" source="YoOEF6NpQiSxoWh0JSfD-9" target="YoOEF6NpQiSxoWh0JSfD-13">
          <mxGeometry relative="1" as="geometry" />
        </mxCell>
        <mxCell id="YoOEF6NpQiSxoWh0JSfD-9" value="Payment service" style="whiteSpace=wrap;html=1;" vertex="1" parent="1">
          <mxGeometry x="345" y="760" width="180" height="130" as="geometry" />
        </mxCell>
        <mxCell id="YoOEF6NpQiSxoWh0JSfD-10" value="MariaDB" style="shape=cylinder3;whiteSpace=wrap;html=1;boundedLbl=1;backgroundOutline=1;size=15;" vertex="1" parent="1">
          <mxGeometry x="620" y="590" width="110" height="120" as="geometry" />
        </mxCell>
        <mxCell id="YoOEF6NpQiSxoWh0JSfD-13" value="MariaDB" style="shape=cylinder3;whiteSpace=wrap;html=1;boundedLbl=1;backgroundOutline=1;size=15;" vertex="1" parent="1">
          <mxGeometry x="620" y="765" width="110" height="120" as="geometry" />
        </mxCell>
        <mxCell id="YoOEF6NpQiSxoWh0JSfD-18" style="edgeStyle=orthogonalEdgeStyle;rounded=0;orthogonalLoop=1;jettySize=auto;html=1;entryX=0;entryY=0.5;entryDx=0;entryDy=0;exitX=0.5;exitY=1;exitDx=0;exitDy=0;" edge="1" parent="1" source="YoOEF6NpQiSxoWh0JSfD-2" target="YoOEF6NpQiSxoWh0JSfD-9">
          <mxGeometry relative="1" as="geometry">
            <mxPoint x="210" y="380" as="sourcePoint" />
            <mxPoint x="355" y="660" as="targetPoint" />
            <Array as="points">
              <mxPoint x="200" y="820" />
              <mxPoint x="345" y="820" />
            </Array>
          </mxGeometry>
        </mxCell>
        <mxCell id="YoOEF6NpQiSxoWh0JSfD-19" value="verify users&#39; payment" style="text;html=1;align=center;verticalAlign=middle;resizable=0;points=[];autosize=1;strokeColor=none;fillColor=none;" vertex="1" parent="1">
          <mxGeometry x="190" y="788" width="140" height="30" as="geometry" />
        </mxCell>
        <mxCell id="YoOEF6NpQiSxoWh0JSfD-20" value=" authenticate users participating in auctions" style="text;html=1;align=center;verticalAlign=middle;resizable=0;points=[];autosize=1;strokeColor=none;fillColor=none;" vertex="1" parent="1">
          <mxGeometry x="125" y="608" width="250" height="30" as="geometry" />
        </mxCell>
        <mxCell id="YoOEF6NpQiSxoWh0JSfD-21" value="&lt;div&gt;real-time information about product&amp;nbsp;&lt;/div&gt;&lt;div&gt;availability and inventory levels&lt;/div&gt;" style="text;html=1;align=center;verticalAlign=middle;resizable=0;points=[];autosize=1;strokeColor=none;fillColor=none;" vertex="1" parent="1">
          <mxGeometry x="110" y="440" width="210" height="40" as="geometry" />
        </mxCell>
        <mxCell id="YoOEF6NpQiSxoWh0JSfD-23" value="bid-related operations" style="text;html=1;align=center;verticalAlign=middle;resizable=0;points=[];autosize=1;strokeColor=none;fillColor=none;" vertex="1" parent="1">
          <mxGeometry x="-40" y="268" width="140" height="30" as="geometry" />
        </mxCell>
        <mxCell id="YoOEF6NpQiSxoWh0JSfD-25" value="payment processes" style="text;html=1;align=center;verticalAlign=middle;resizable=0;points=[];autosize=1;strokeColor=none;fillColor=none;" vertex="1" parent="1">
          <mxGeometry x="175" y="858" width="130" height="30" as="geometry" />
        </mxCell>
        <mxCell id="YoOEF6NpQiSxoWh0JSfD-27" value="checking product availability" style="text;html=1;align=center;verticalAlign=middle;resizable=0;points=[];autosize=1;strokeColor=none;fillColor=none;" vertex="1" parent="1">
          <mxGeometry x="190" y="500" width="170" height="30" as="geometry" />
        </mxCell>
      </root>
    </mxGraphModel>
  </diagram>
</mxfile>
